<?xml version='1.0' encoding='iso-8859-1'?>
<!DOCTYPE svg PUBLIC '-//W3C//DTD SVG 1.1//EN' 'http://www.w3.org/Graphics/SVG/1.1/DTD/svg11.dtd'>
<svg version="1.1" xmlns="http://www.w3.org/2000/svg" viewBox="0 0 297 297" xmlns:xlink="http://www.w3.org/1999/xlink" enable-background="new 0 0 297 297">
  <path style="stroke:#cd90a8; fill:#cd90a8;"
    d="m217.979,20.137c-29.944,0-56.053,17.511-69.464,43.254-13.41-25.743-39.523-43.254-69.47-43.254-43.586,0-79.045,37.093-79.045,82.688 0,33.107 24.412,72.368 72.56,116.692 34.906,32.134 69.247,54.82 70.691,55.77 1.599,1.051 3.432,1.576 5.265,1.576 1.835,0 3.669-0.526 5.266-1.577 1.445-0.949 35.778-23.639 70.677-55.774 48.134-44.326 72.541-83.586 72.541-116.687 0-45.595-35.449-82.688-79.021-82.688zm-198.814,82.688c7.10543e-15-29.946 19.64-55.102 45.969-61.774v50.225l-29.199-8.43c-3.322-0.961-6.908-0.052-9.375,2.373-2.468,2.427-3.436,5.994-2.532,9.335l12.464,46.095c0.903,3.34 3.537,5.935 6.892,6.786 0.781,0.198 1.573,0.294 2.358,0.294 2.587,0 5.104-1.049 6.937-2.97l12.456-13.065v53.684c-30.165-31.792-45.97-60.043-45.97-82.553zm40.509,6.821l-9.124,9.571-3.58-13.238 12.704,3.667zm24.624,94.618v-87.51l34.79,10.042c0.876,0.253 1.771,0.376 2.656,0.376 0.037,0 0.073,0 0.109,0 5.252-0.049 9.493-4.319 9.493-9.582 0-1.09-0.182-2.136-0.516-3.111l-12.303-45.484c-0.904-3.34-3.538-5.934-6.893-6.785-3.352-0.852-6.905,0.17-9.294,2.676l-18.042,18.927v-44.252c30.57,2.834 54.636,30.116 54.636,63.265 0,5.292 4.29,9.582 9.582,9.582 5.292,0 9.583-4.29 9.583-9.582 0-35.027 26.862-63.523 59.88-63.523 33.005,0 59.856,28.496 59.856,63.523 0,27.096-22.884,62.513-66.179,102.421-25.948,23.921-52.218,42.855-63.142,50.439-10.925-7.584-38.26-27.503-64.216-51.422zm11.051-104.267l9.123-9.57 3.58,13.236-12.703-3.666z"/>
</svg>
